<mxfile host="65bd71144e">
    <diagram id="FxnvR3addlSsjukCZOT9" name="Page-1">
        <mxGraphModel dx="2395" dy="2833" grid="1" gridSize="10" guides="1" tooltips="1" connect="1" arrows="1" fold="1" page="1" pageScale="1" pageWidth="850" pageHeight="1100" math="0" shadow="0">
            <root>
                <mxCell id="0"/>
                <mxCell id="1" parent="0"/>
                <mxCell id="23" value="&lt;p style=&quot;margin:0px;margin-top:4px;text-align:center;&quot;&gt;&lt;i&gt;&amp;lt;&amp;lt;Interface&amp;gt;&amp;gt;&lt;/i&gt;&lt;br&gt;&lt;b&gt;IDatabaseConnection&lt;/b&gt;&lt;br&gt;&lt;/p&gt;&lt;hr size=&quot;1&quot;&gt;&amp;nbsp;&lt;br&gt;&lt;hr size=&quot;1&quot;&gt;&lt;p style=&quot;margin:0px;margin-left:4px;&quot;&gt;+ connect(): void&lt;/p&gt;&lt;p style=&quot;margin: 0px 0px 0px 4px;&quot;&gt;+&amp;nbsp;&lt;span style=&quot;background-color: initial;&quot;&gt;getDatabase():&lt;/span&gt;&lt;span style=&quot;background-color: initial;&quot;&gt;MongoDatabase&lt;/span&gt;&lt;br&gt;&lt;/p&gt;&lt;p style=&quot;margin: 0px 0px 0px 4px;&quot;&gt;+ close(): void&amp;nbsp;&amp;nbsp;&lt;/p&gt;" style="verticalAlign=top;align=left;overflow=fill;fontSize=12;fontFamily=Helvetica;html=1;rounded=0;strokeColor=default;fontColor=default;fillColor=default;" vertex="1" parent="1">
                    <mxGeometry x="195" y="-1130" width="190" height="140" as="geometry"/>
                </mxCell>
                <mxCell id="24" value="&lt;p style=&quot;margin:0px;margin-top:4px;text-align:center;&quot;&gt;&lt;i&gt;MongoDBConnection&amp;nbsp;&lt;/i&gt;&lt;br&gt;&lt;/p&gt;&lt;hr size=&quot;1&quot;&gt;&lt;p style=&quot;margin:0px;margin-left:4px;&quot;&gt;&amp;nbsp;-dotenv: Dotenv&lt;br&gt;&lt;/p&gt;&lt;p style=&quot;margin:0px;margin-left:4px;&quot;&gt;&amp;nbsp;-mongoClient:&amp;nbsp;&lt;span style=&quot;background-color: initial;&quot;&gt;MongoClient&lt;/span&gt;&lt;/p&gt;&lt;p style=&quot;margin:0px;margin-left:4px;&quot;&gt;&lt;span style=&quot;background-color: initial;&quot;&gt;&amp;nbsp;&lt;/span&gt;&lt;span style=&quot;background-color: initial;&quot;&gt;-database:&amp;nbsp;&lt;/span&gt;&lt;span style=&quot;background-color: initial;&quot;&gt;MongoDatabase&lt;br&gt;&lt;/span&gt;&lt;/p&gt;&lt;p style=&quot;margin:0px;margin-left:4px;&quot;&gt;&amp;nbsp;-conexionExitosa:&amp;nbsp;&lt;span style=&quot;background-color: initial;&quot;&gt;boolean&lt;br&gt;&amp;nbsp;-MONGOURL: String&lt;br&gt;&amp;nbsp;-NAMEDB: String&amp;nbsp;&lt;br&gt;&amp;nbsp;&lt;/span&gt;&lt;/p&gt;&lt;hr size=&quot;1&quot;&gt;&amp;nbsp;+connect(): void&lt;p style=&quot;margin:0px;margin-left:4px;&quot;&gt;+getDatabase(): MongoDatabase&lt;br&gt;+close(): void&lt;br&gt;&lt;/p&gt;&lt;p style=&quot;margin:0px;margin-left:4px;&quot;&gt;+isConexionExitosa(): &lt;span style=&quot;background-color: initial;&quot;&gt;boolean&lt;/span&gt;&lt;/p&gt;" style="verticalAlign=top;align=left;overflow=fill;fontSize=12;fontFamily=Helvetica;html=1;rounded=0;strokeColor=default;fontColor=default;fillColor=default;" vertex="1" parent="1">
                    <mxGeometry x="200" y="-830" width="185" height="240" as="geometry"/>
                </mxCell>
                <mxCell id="26" value="&lt;p style=&quot;margin:0px;margin-top:4px;text-align:center;&quot;&gt;&lt;i&gt;&amp;lt;&amp;lt;Interface&amp;gt;&amp;gt;&lt;/i&gt;&lt;br&gt;&lt;b&gt;IReservationsService&lt;/b&gt;&lt;br&gt;&lt;/p&gt;&lt;hr size=&quot;1&quot;&gt;&amp;nbsp;&lt;br&gt;&lt;hr size=&quot;1&quot;&gt;&amp;nbsp;+create(reservation:&amp;nbsp;Reservation): boolean&lt;br&gt;&lt;span style=&quot;background-color: initial;&quot;&gt;&amp;nbsp;+update(reservation:&amp;nbsp;Reservation): boolean&lt;br&gt;&amp;nbsp;+delete(roomId: String): boolean&lt;br&gt;&amp;nbsp;+listReservationUser(idClient: String):List&amp;lt;Reservation&amp;gt;&lt;br&gt;&amp;nbsp;+getReservationById(reservationId:String): Reservation&lt;br&gt;&lt;/span&gt;&lt;p style=&quot;margin:0px;margin-left:4px;&quot;&gt;&lt;br&gt;&lt;/p&gt;" style="verticalAlign=top;align=left;overflow=fill;fontSize=12;fontFamily=Helvetica;html=1;rounded=0;strokeColor=default;fontColor=default;fillColor=default;" vertex="1" parent="1">
                    <mxGeometry x="497.5" y="-1120" width="330" height="160" as="geometry"/>
                </mxCell>
                <mxCell id="31" style="edgeStyle=none;html=1;exitX=0.25;exitY=0;exitDx=0;exitDy=0;entryX=0.5;entryY=1;entryDx=0;entryDy=0;fontFamily=Helvetica;fontSize=12;fontColor=default;" edge="1" parent="1" source="27" target="24">
                    <mxGeometry relative="1" as="geometry"/>
                </mxCell>
                <mxCell id="27" value="&lt;p style=&quot;margin:0px;margin-top:4px;text-align:center;&quot;&gt;&lt;b&gt;ReservationService&lt;/b&gt;&lt;br&gt;&lt;/p&gt;&lt;hr size=&quot;1&quot;&gt;&lt;p style=&quot;margin:0px;margin-left:4px;&quot;&gt;&amp;nbsp;-reservationCollection&amp;nbsp;: MongoCollection&lt;/p&gt;&lt;hr size=&quot;1&quot;&gt;&lt;p style=&quot;margin:0px;margin-left:4px;&quot;&gt;+ReservationService()&lt;br&gt;+create(reservation:&amp;nbsp;Reservation): boolean&lt;br&gt;&lt;/p&gt;&lt;p style=&quot;margin:0px;margin-left:4px;&quot;&gt;+update(reservation:&amp;nbsp;Reservation): boolean&lt;br&gt;&lt;/p&gt;&lt;p style=&quot;margin:0px;margin-left:4px;&quot;&gt;+delete(roomId:&amp;nbsp;String): boolean&amp;nbsp;&lt;br&gt;&lt;/p&gt;&lt;p style=&quot;margin:0px;margin-left:4px;&quot;&gt;+listReservationUser(idClient: String):List&amp;lt;Reservation&amp;gt;&amp;nbsp;&lt;br&gt;&lt;/p&gt;&lt;p style=&quot;margin:0px;margin-left:4px;&quot;&gt;+getReservationById(reservationId:String): Reservation&lt;br&gt;&lt;/p&gt;&lt;p style=&quot;margin:0px;margin-left:4px;&quot;&gt;+listReservationAdmin(): List&amp;lt;Reservation&amp;gt;&amp;nbsp;&lt;br&gt;&lt;/p&gt;&lt;p style=&quot;margin:0px;margin-left:4px;&quot;&gt;+listReservationsRoom(idRoom: String):List&amp;lt;Reservation&amp;gt;&lt;br&gt;&lt;/p&gt;" style="verticalAlign=top;align=left;overflow=fill;fontSize=12;fontFamily=Helvetica;html=1;rounded=0;strokeColor=default;fontColor=default;fillColor=default;" vertex="1" parent="1">
                    <mxGeometry x="492.5" y="-280" width="335" height="200" as="geometry"/>
                </mxCell>
                <mxCell id="32" value="" style="endArrow=block;dashed=1;endFill=0;endSize=12;html=1;fontFamily=Helvetica;fontSize=12;fontColor=default;exitX=0.75;exitY=0;exitDx=0;exitDy=0;entryX=0.75;entryY=1;entryDx=0;entryDy=0;" edge="1" parent="1" source="27" target="26">
                    <mxGeometry width="160" relative="1" as="geometry">
                        <mxPoint x="650" y="-570" as="sourcePoint"/>
                        <mxPoint x="810" y="-570" as="targetPoint"/>
                    </mxGeometry>
                </mxCell>
                <mxCell id="33" value="" style="endArrow=block;dashed=1;endFill=0;endSize=12;html=1;fontFamily=Helvetica;fontSize=12;fontColor=default;exitX=0.5;exitY=0;exitDx=0;exitDy=0;entryX=0.5;entryY=1;entryDx=0;entryDy=0;" edge="1" parent="1" source="24" target="23">
                    <mxGeometry width="160" relative="1" as="geometry">
                        <mxPoint x="471.25" y="-710" as="sourcePoint"/>
                        <mxPoint x="470" y="-920" as="targetPoint"/>
                    </mxGeometry>
                </mxCell>
                <mxCell id="34" value="&lt;p style=&quot;margin:0px;margin-top:4px;text-align:center;&quot;&gt;&lt;i&gt;&amp;lt;&amp;lt;Interface&amp;gt;&amp;gt;&lt;/i&gt;&lt;br&gt;&lt;/p&gt;&lt;div style=&quot;text-align: center;&quot;&gt;&lt;span style=&quot;background-color: initial;&quot;&gt;&lt;b&gt;IRoomsService&lt;/b&gt;&lt;/span&gt;&lt;span style=&quot;background-color: initial;&quot;&gt;&amp;nbsp;&lt;/span&gt;&lt;/div&gt;&lt;hr size=&quot;1&quot;&gt;&amp;nbsp;+create(room: Room): boolean&lt;br&gt;&lt;span style=&quot;background-color: initial;&quot;&gt;&amp;nbsp;+update(room: Room): boolean&lt;br&gt;&amp;nbsp;+delete(roomId:&amp;nbsp;String): boolean&lt;br&gt;&amp;nbsp;+list(): List&amp;lt;Room&amp;gt;&lt;br&gt;&amp;nbsp;+getRoomByID(roomId:String): Room&lt;br&gt;&lt;/span&gt;&lt;p style=&quot;margin:0px;margin-left:4px;&quot;&gt;&lt;br&gt;&lt;/p&gt;" style="verticalAlign=top;align=left;overflow=fill;fontSize=12;fontFamily=Helvetica;html=1;rounded=0;strokeColor=default;fontColor=default;fillColor=default;" vertex="1" parent="1">
                    <mxGeometry x="1150" y="-1100" width="330" height="160" as="geometry"/>
                </mxCell>
                <mxCell id="37" style="edgeStyle=none;html=1;exitX=0.25;exitY=0;exitDx=0;exitDy=0;entryX=0.75;entryY=1;entryDx=0;entryDy=0;fontFamily=Helvetica;fontSize=12;fontColor=default;" edge="1" parent="1" source="35" target="24">
                    <mxGeometry relative="1" as="geometry">
                        <Array as="points">
                            <mxPoint x="1230" y="-300"/>
                            <mxPoint x="810" y="-300"/>
                        </Array>
                    </mxGeometry>
                </mxCell>
                <mxCell id="35" value="&lt;p style=&quot;margin:0px;margin-top:4px;text-align:center;&quot;&gt;&lt;b&gt;RoomsService&lt;/b&gt;&lt;br&gt;&lt;/p&gt;&lt;hr size=&quot;1&quot;&gt;&lt;p style=&quot;margin:0px;margin-left:4px;&quot;&gt;-roomCollection: MongoCollection&lt;/p&gt;&lt;hr size=&quot;1&quot;&gt;&lt;p style=&quot;margin:0px;margin-left:4px;&quot;&gt;+RoomsService()&lt;br&gt;+create(room: Room): boolean&lt;br&gt;&lt;/p&gt;&lt;p style=&quot;margin:0px;margin-left:4px;&quot;&gt;+update(room: Room): boolean&lt;br&gt;&lt;/p&gt;&lt;p style=&quot;margin:0px;margin-left:4px;&quot;&gt;+delete(roomId:&amp;nbsp;String): boolean&amp;nbsp;&lt;br&gt;&lt;/p&gt;&lt;p style=&quot;margin:0px;margin-left:4px;&quot;&gt;+list(): List&amp;lt;Room&amp;gt;&amp;nbsp;&lt;br&gt;&lt;/p&gt;&lt;p style=&quot;margin:0px;margin-left:4px;&quot;&gt;+getRoomByID(roomId:String): Room&lt;br&gt;&lt;/p&gt;&lt;p style=&quot;margin:0px;margin-left:4px;&quot;&gt;+roomExist(number:String): boolean&lt;br&gt;&lt;/p&gt;&lt;p style=&quot;margin:0px;margin-left:4px;&quot;&gt;&lt;br&gt;&lt;/p&gt;" style="verticalAlign=top;align=left;overflow=fill;fontSize=12;fontFamily=Helvetica;html=1;rounded=0;strokeColor=default;fontColor=default;fillColor=default;" vertex="1" parent="1">
                    <mxGeometry x="1147.5" y="-280" width="335" height="200" as="geometry"/>
                </mxCell>
                <mxCell id="36" value="" style="endArrow=block;dashed=1;endFill=0;endSize=12;html=1;fontFamily=Helvetica;fontSize=12;fontColor=default;exitX=0.75;exitY=0;exitDx=0;exitDy=0;entryX=0.75;entryY=1;entryDx=0;entryDy=0;" edge="1" parent="1" source="35" target="34">
                    <mxGeometry width="160" relative="1" as="geometry">
                        <mxPoint x="758.75" y="-460" as="sourcePoint"/>
                        <mxPoint x="757.5" y="-670" as="targetPoint"/>
                        <Array as="points">
                            <mxPoint x="1398" y="-360"/>
                            <mxPoint x="1240" y="-360"/>
                            <mxPoint x="1250" y="-890"/>
                            <mxPoint x="1390" y="-890"/>
                        </Array>
                    </mxGeometry>
                </mxCell>
                <mxCell id="38" value="&lt;p style=&quot;margin:0px;margin-top:4px;text-align:center;&quot;&gt;&lt;i&gt;&amp;lt;&amp;lt;Interface&amp;gt;&amp;gt;&lt;/i&gt;&lt;br&gt;&lt;/p&gt;&lt;div style=&quot;text-align: center;&quot;&gt;&lt;b&gt;IUsersService&lt;/b&gt;&lt;br&gt;&lt;/div&gt;&lt;hr size=&quot;1&quot;&gt;&amp;nbsp;+userExist(email:String): boolean&lt;br&gt;&lt;span style=&quot;background-color: initial;&quot;&gt;&amp;nbsp;+register(user: User):&amp;nbsp;boolean&lt;br&gt;&amp;nbsp;+login(email: String,password: String):&amp;nbsp;&lt;/span&gt;boolean&lt;span style=&quot;background-color: initial;&quot;&gt;&lt;br&gt;&amp;nbsp;+list(): List&amp;lt;Room&amp;gt;&lt;br&gt;&amp;nbsp;+getUserByEmail(email:String): User&lt;br&gt;&lt;/span&gt;&lt;p style=&quot;margin:0px;margin-left:4px;&quot;&gt;&lt;br&gt;&lt;/p&gt;" style="verticalAlign=top;align=left;overflow=fill;fontSize=12;fontFamily=Helvetica;html=1;rounded=0;strokeColor=default;fontColor=default;fillColor=default;" vertex="1" parent="1">
                    <mxGeometry x="-220" y="-1040" width="330" height="160" as="geometry"/>
                </mxCell>
                <mxCell id="39" value="&lt;p style=&quot;margin:0px;margin-top:4px;text-align:center;&quot;&gt;&lt;b&gt;UserService&lt;/b&gt;&lt;/p&gt;&lt;hr size=&quot;1&quot;&gt;&lt;p style=&quot;margin:0px;margin-left:4px;&quot;&gt;-COLLECTION_NAME:&amp;nbsp;String&lt;br&gt;-userCollection:MongoCollection&lt;br&gt;&lt;/p&gt;&lt;p style=&quot;margin:0px;margin-left:4px;&quot;&gt;-loggedUser: User&amp;nbsp;&lt;br&gt;&lt;/p&gt;&lt;hr size=&quot;1&quot;&gt;&lt;p style=&quot;margin:0px;margin-left:4px;&quot;&gt;+UserService()&lt;br&gt;+getLoggedUser(): User&lt;br&gt;&lt;/p&gt;&lt;p style=&quot;margin:0px;margin-left:4px;&quot;&gt;+setLoggedUser(&amp;nbsp;loggedUser: User)&lt;br&gt;&lt;/p&gt;&lt;p style=&quot;margin:0px;margin-left:4px;&quot;&gt;+userExist(email:&amp;nbsp;String): boolean&lt;br&gt;&lt;/p&gt;&lt;p style=&quot;margin:0px;margin-left:4px;&quot;&gt;+register(user: User):boolean :&amp;nbsp;boolean&lt;br&gt;+login(email: String,password: String)&lt;br&gt;&lt;/p&gt;&lt;p style=&quot;margin:0px;margin-left:4px;&quot;&gt;+getUserByEmail(email:String): User&lt;br&gt;-insertUser(usuarioDoc&amp;nbsp;: Document): boolean&lt;br&gt;&lt;/p&gt;&lt;p style=&quot;margin:0px;margin-left:4px;&quot;&gt;-addAdmin(): void&lt;br&gt;&lt;/p&gt;" style="verticalAlign=top;align=left;overflow=fill;fontSize=12;fontFamily=Helvetica;html=1;rounded=0;strokeColor=default;fontColor=default;fillColor=default;" vertex="1" parent="1">
                    <mxGeometry x="-222.5" y="-290" width="332.5" height="250" as="geometry"/>
                </mxCell>
                <mxCell id="40" value="" style="endArrow=block;dashed=1;endFill=0;endSize=12;html=1;fontFamily=Helvetica;fontSize=12;fontColor=default;exitX=0.25;exitY=0;exitDx=0;exitDy=0;entryX=0.25;entryY=1;entryDx=0;entryDy=0;" edge="1" parent="1" source="39" target="38">
                    <mxGeometry width="160" relative="1" as="geometry">
                        <mxPoint x="758.75" y="-460" as="sourcePoint"/>
                        <mxPoint x="757.5" y="-670" as="targetPoint"/>
                        <Array as="points">
                            <mxPoint x="-137" y="-400"/>
                            <mxPoint x="-310" y="-400"/>
                            <mxPoint x="-280" y="-740"/>
                        </Array>
                    </mxGeometry>
                </mxCell>
                <mxCell id="41" style="edgeStyle=none;html=1;exitX=0.75;exitY=0;exitDx=0;exitDy=0;entryX=0.25;entryY=1;entryDx=0;entryDy=0;fontFamily=Helvetica;fontSize=12;fontColor=default;" edge="1" parent="1" source="39" target="24">
                    <mxGeometry relative="1" as="geometry">
                        <mxPoint x="591.25" y="-460" as="sourcePoint"/>
                        <mxPoint x="352.5" y="-590" as="targetPoint"/>
                    </mxGeometry>
                </mxCell>
                <mxCell id="42" value="&lt;p style=&quot;margin:0px;margin-top:4px;text-align:center;&quot;&gt;&lt;b&gt;User&lt;/b&gt;&lt;/p&gt;&lt;hr size=&quot;1&quot;&gt;&lt;p style=&quot;margin:0px;margin-left:4px;&quot;&gt;-id: String&lt;br&gt;-typeCC: String&lt;br&gt;-cc: String&lt;br&gt;-name: String&lt;br&gt;-lastName: String&amp;nbsp;&lt;br&gt;-email: String&lt;br&gt;-address: String&lt;br&gt;-city: String&lt;br&gt;-phone: String&lt;br&gt;-password: String&amp;nbsp;&lt;br&gt;-typeUser: String&lt;br&gt;&lt;/p&gt;&lt;hr size=&quot;1&quot;&gt;&lt;p style=&quot;margin:0px;margin-left:4px;&quot;&gt;+User(id: String,typeCC: String,cc: String,name: String,lastName: String,&lt;/p&gt;&lt;p style=&quot;margin:0px;margin-left:4px;&quot;&gt;&amp;nbsp;&amp;nbsp;email: String,address: String,city: String,phone: String,password: String,&lt;br&gt;&amp;nbsp;&amp;nbsp;typeUser: String)&lt;/p&gt;&lt;p style=&quot;margin: 0px 0px 0px 4px;&quot;&gt;+User(&lt;span style=&quot;background-color: initial;&quot;&gt;typeCC: String,cc: String,name: String,lastName: String, email : String,&lt;/span&gt;&lt;/p&gt;&lt;p style=&quot;margin: 0px 0px 0px 4px;&quot;&gt;&amp;nbsp; address: String,city: String,phone: String,password: String,typeUser: String)&lt;br&gt;&lt;/p&gt;&lt;p style=&quot;margin: 0px 0px 0px 4px;&quot;&gt;&lt;span style=&quot;background-color: initial;&quot;&gt;+User()&lt;br&gt;+getId(): String&lt;br&gt;+setId(id: String)&lt;/span&gt;&lt;/p&gt;&lt;p style=&quot;margin: 0px 0px 0px 4px;&quot;&gt;&lt;span style=&quot;background-color: initial;&quot;&gt;+getCc(): String&amp;nbsp;&lt;br&gt;+setCc(cc: String)&lt;br&gt;&lt;/span&gt;&lt;/p&gt;&lt;p style=&quot;margin: 0px 0px 0px 4px;&quot;&gt;&lt;span style=&quot;background-color: initial;&quot;&gt;+getTypeCC(): String&lt;br&gt;+getCC(): String&lt;br&gt;&lt;/span&gt;&lt;/p&gt;&amp;nbsp;+getName(): String&lt;br&gt;&amp;nbsp;+getLastName(): String&lt;br&gt;&amp;nbsp;+getEmail(): String&lt;br&gt;&amp;nbsp;+getAddress(): String&lt;br&gt;&amp;nbsp;+getCity(): String&lt;br&gt;&amp;nbsp;+getPhone(): String&lt;br&gt;&amp;nbsp;+getPassword(): String&lt;br&gt;&amp;nbsp;+getTypeUser(): String" style="verticalAlign=top;align=left;overflow=fill;fontSize=12;fontFamily=Helvetica;html=1;rounded=0;strokeColor=default;fontColor=default;fillColor=default;" vertex="1" parent="1">
                    <mxGeometry x="-760" y="-760" width="420" height="490" as="geometry"/>
                </mxCell>
                <mxCell id="43" value="" style="endArrow=block;endFill=1;html=1;edgeStyle=orthogonalEdgeStyle;align=left;verticalAlign=top;fontFamily=Helvetica;fontSize=12;fontColor=default;exitX=0.5;exitY=1;exitDx=0;exitDy=0;entryX=0;entryY=0.5;entryDx=0;entryDy=0;" edge="1" parent="1" source="42" target="39">
                    <mxGeometry x="-1" relative="1" as="geometry">
                        <mxPoint x="-570" y="-310" as="sourcePoint"/>
                        <mxPoint x="-410" y="-310" as="targetPoint"/>
                    </mxGeometry>
                </mxCell>
                <mxCell id="54" value="1" style="edgeLabel;html=1;align=center;verticalAlign=middle;resizable=0;points=[];fontSize=12;fontFamily=Helvetica;fontColor=default;" vertex="1" connectable="0" parent="43">
                    <mxGeometry x="-0.8875" relative="1" as="geometry">
                        <mxPoint as="offset"/>
                    </mxGeometry>
                </mxCell>
                <mxCell id="46" value="&lt;p style=&quot;margin:0px;margin-top:4px;text-align:center;&quot;&gt;&lt;b&gt;Room&lt;/b&gt;&lt;/p&gt;&lt;hr size=&quot;1&quot;&gt;&lt;p style=&quot;margin:0px;margin-left:4px;&quot;&gt;-id: String&lt;br&gt;-number: String&lt;br&gt;-type: String&lt;br&gt;-capacity: String&lt;br&gt;-priceNight: String&amp;nbsp;&lt;br&gt;&lt;/p&gt;&lt;hr size=&quot;1&quot;&gt;&lt;p style=&quot;margin:0px;margin-left:4px;&quot;&gt;+Room(id: String,number: String,type: String,capacity: String,&lt;/p&gt;&lt;p style=&quot;margin:0px;margin-left:4px;&quot;&gt;&amp;nbsp;&amp;nbsp;priceNight: String)&lt;br&gt;&lt;/p&gt;&lt;p style=&quot;margin: 0px 0px 0px 4px;&quot;&gt;+Room(number: String,type: String,capacity: String,&lt;span style=&quot;background-color: initial;&quot;&gt;&amp;nbsp;priceNight: String)&lt;br&gt;+getId(): String&lt;br&gt;+setId(id: String)&lt;br&gt;+getNumber(): String&lt;br&gt;+setNumber(number: String)&lt;br&gt;&lt;/span&gt;&lt;/p&gt;&lt;p style=&quot;margin: 0px 0px 0px 4px;&quot;&gt;&lt;span style=&quot;background-color: initial;&quot;&gt;+getType(): String&lt;br&gt;+setType(type: String)&lt;br&gt;&lt;/span&gt;&lt;/p&gt;&lt;p style=&quot;margin: 0px 0px 0px 4px;&quot;&gt;&lt;span style=&quot;background-color: initial;&quot;&gt;+getCapacity(): String&lt;br&gt;+setCapacity(capacity : String)&lt;br&gt;+getPriceNight():String&lt;br&gt;+setPriceNight(priceNight: String)&amp;nbsp;&lt;br&gt;&lt;br&gt;&lt;br&gt;&lt;br&gt;&lt;/span&gt;&lt;/p&gt;&amp;nbsp;" style="verticalAlign=top;align=left;overflow=fill;fontSize=12;fontFamily=Helvetica;html=1;rounded=0;strokeColor=default;fontColor=default;fillColor=default;" vertex="1" parent="1">
                    <mxGeometry x="1710" y="-850" width="400" height="330" as="geometry"/>
                </mxCell>
                <mxCell id="47" value="" style="endArrow=block;endFill=1;html=1;edgeStyle=orthogonalEdgeStyle;align=left;verticalAlign=top;fontFamily=Helvetica;fontSize=12;fontColor=default;exitX=0.5;exitY=1;exitDx=0;exitDy=0;entryX=1;entryY=0.5;entryDx=0;entryDy=0;" edge="1" parent="1" source="46" target="35">
                    <mxGeometry x="-1" relative="1" as="geometry">
                        <mxPoint x="1780" y="-350" as="sourcePoint"/>
                        <mxPoint x="1940" y="-350" as="targetPoint"/>
                    </mxGeometry>
                </mxCell>
                <mxCell id="48" value="" style="edgeLabel;resizable=0;html=1;align=left;verticalAlign=bottom;rounded=0;strokeColor=default;fontFamily=Helvetica;fontSize=12;fontColor=default;fillColor=default;" connectable="0" vertex="1" parent="47">
                    <mxGeometry x="-1" relative="1" as="geometry"/>
                </mxCell>
                <mxCell id="49" value="N" style="edgeLabel;html=1;align=center;verticalAlign=middle;resizable=0;points=[];fontSize=12;fontFamily=Helvetica;fontColor=default;" vertex="1" connectable="0" parent="47">
                    <mxGeometry x="-0.8788" y="1" relative="1" as="geometry">
                        <mxPoint as="offset"/>
                    </mxGeometry>
                </mxCell>
                <mxCell id="50" value="&lt;p style=&quot;margin:0px;margin-top:4px;text-align:center;&quot;&gt;&lt;b&gt;Reservation&lt;/b&gt;&lt;/p&gt;&lt;hr size=&quot;1&quot;&gt;&lt;p style=&quot;margin:0px;margin-left:4px;&quot;&gt;&amp;nbsp;-id: String&lt;br&gt;&amp;nbsp;-idClient: String&amp;nbsp;&lt;br&gt;&amp;nbsp;-idRoom: String&lt;br&gt;&amp;nbsp;-numberRoom: String&lt;br&gt;&amp;nbsp;-numberPersons: String&amp;nbsp;&lt;br&gt;&amp;nbsp;-dateEntry: String&amp;nbsp;&lt;br&gt;&amp;nbsp;-dateExit: String&lt;br&gt;&amp;nbsp;-totalPrice: String&lt;br&gt;&amp;nbsp;-priceNigth: String&lt;br&gt;&amp;nbsp;-capacityRoom: String&lt;br&gt;&lt;/p&gt;&lt;hr size=&quot;1&quot;&gt;&lt;p style=&quot;margin:0px;margin-left:4px;&quot;&gt;+Reservation(id: String, idClient: String, idRoom: String, numberRoom: String,&lt;/p&gt;&lt;p style=&quot;margin:0px;margin-left:4px;&quot;&gt;&amp;nbsp; numberPersons: String, dateEntry: String, dateExit: String, totalPrice: String,&lt;/p&gt;&lt;p style=&quot;margin:0px;margin-left:4px;&quot;&gt;&amp;nbsp; priceNigth: String, capacityRoom: String)&lt;/p&gt;&lt;p style=&quot;margin:0px;margin-left:4px;&quot;&gt;+Reservation(idClient: String, idRoom: String, numberRoom: String,&amp;nbsp;&lt;/p&gt;&lt;p style=&quot;margin:0px;margin-left:4px;&quot;&gt;&amp;nbsp;numberPersons: String, dateEntry: String, dateExit: String, totalPrice: String,&amp;nbsp;&lt;/p&gt;&lt;p style=&quot;margin:0px;margin-left:4px;&quot;&gt;&amp;nbsp;priceNigth: String, capacityRoom: String)&lt;br&gt;&lt;/p&gt;&lt;p style=&quot;margin:0px;margin-left:4px;&quot;&gt;+getId(): String&amp;nbsp;&lt;br&gt;&lt;/p&gt;&lt;p style=&quot;margin:0px;margin-left:4px;&quot;&gt;+setId(id: String)&lt;br&gt;&lt;/p&gt;&lt;p style=&quot;margin:0px;margin-left:4px;&quot;&gt;+getIdClient(): String&lt;br&gt;&lt;/p&gt;&lt;p style=&quot;margin:0px;margin-left:4px;&quot;&gt;+setIdClient(idClient: String)&lt;br&gt;&lt;/p&gt;&lt;p style=&quot;margin:0px;margin-left:4px;&quot;&gt;+getIdRoom(): String&lt;br&gt;&lt;/p&gt;&lt;p style=&quot;margin:0px;margin-left:4px;&quot;&gt;+setIdRoom(idRoom: String)&lt;br&gt;&lt;/p&gt;&lt;p style=&quot;margin:0px;margin-left:4px;&quot;&gt;+getNumberRoom(): String&lt;br&gt;&lt;/p&gt;&lt;p style=&quot;margin: 0px 0px 0px 4px;&quot;&gt;&lt;/p&gt;&amp;nbsp;+setNumberRoom(numberRoom: String)&lt;br&gt;&amp;nbsp;+getNumberPersons(): String&amp;nbsp;&lt;br&gt;&amp;nbsp;+setNumberPersons(numberPersons: String)&lt;br&gt;&amp;nbsp;+getDateEntry(): String&lt;br&gt;&amp;nbsp;+setDateEntry(dateEntry: String)&lt;br&gt;&amp;nbsp;+getDateExit(): String&lt;br&gt;&amp;nbsp;+setDateExit(dateExit: String)&lt;br&gt;&amp;nbsp;+getTotalPrice(): String&lt;br&gt;&amp;nbsp;+setTotalPrice(totalPrice: String)&lt;br&gt;&amp;nbsp;+getPriceNigth(): String&lt;br&gt;&amp;nbsp;+setPriceNigth(priceNigth: String)&lt;br&gt;&amp;nbsp;+getCapacityRoom(): String&lt;br&gt;&amp;nbsp;+setCapacityRoom(capacityRoom: String)" style="verticalAlign=top;align=left;overflow=fill;fontSize=12;fontFamily=Helvetica;html=1;rounded=0;strokeColor=default;fontColor=default;fillColor=default;" vertex="1" parent="1">
                    <mxGeometry x="780" y="-920" width="440" height="570" as="geometry"/>
                </mxCell>
                <mxCell id="51" value="" style="endArrow=block;endFill=1;html=1;edgeStyle=orthogonalEdgeStyle;align=left;verticalAlign=top;fontFamily=Helvetica;fontSize=12;fontColor=default;exitX=0.5;exitY=1;exitDx=0;exitDy=0;entryX=1;entryY=0.5;entryDx=0;entryDy=0;" edge="1" parent="1" source="50" target="27">
                    <mxGeometry x="-1" relative="1" as="geometry">
                        <mxPoint x="1920" y="-510" as="sourcePoint"/>
                        <mxPoint x="1492.5" y="-170" as="targetPoint"/>
                        <Array as="points">
                            <mxPoint x="1000" y="-170"/>
                            <mxPoint x="827" y="-170"/>
                        </Array>
                    </mxGeometry>
                </mxCell>
                <mxCell id="52" value="" style="edgeLabel;resizable=0;html=1;align=left;verticalAlign=bottom;rounded=0;strokeColor=default;fontFamily=Helvetica;fontSize=12;fontColor=default;fillColor=default;" connectable="0" vertex="1" parent="51">
                    <mxGeometry x="-1" relative="1" as="geometry"/>
                </mxCell>
                <mxCell id="53" value="N" style="edgeLabel;html=1;align=center;verticalAlign=middle;resizable=0;points=[];fontSize=12;fontFamily=Helvetica;fontColor=default;" vertex="1" connectable="0" parent="51">
                    <mxGeometry x="-0.8788" y="1" relative="1" as="geometry">
                        <mxPoint as="offset"/>
                    </mxGeometry>
                </mxCell>
                <mxCell id="55" value="&lt;p style=&quot;margin:0px;margin-top:4px;text-align:center;&quot;&gt;&lt;b&gt;ReservationConverter&lt;/b&gt;&lt;br&gt;&lt;/p&gt;&lt;hr size=&quot;1&quot;&gt;&lt;p style=&quot;margin:0px;margin-left:4px;&quot;&gt;&lt;br&gt;&lt;/p&gt;&lt;hr size=&quot;1&quot;&gt;&lt;p style=&quot;margin:0px;margin-left:4px;&quot;&gt;+convertirReservationADocument(reservation: Reservation):&amp;nbsp;&lt;/p&gt;&lt;p style=&quot;margin:0px;margin-left:4px;&quot;&gt;&amp;nbsp;Document&lt;br&gt;+convertirDocumentAReservation(document: Document):&amp;nbsp;&lt;/p&gt;&lt;p style=&quot;margin:0px;margin-left:4px;&quot;&gt;Reservation&lt;br&gt;&lt;/p&gt;" style="verticalAlign=top;align=left;overflow=fill;fontSize=12;fontFamily=Helvetica;html=1;rounded=0;strokeColor=default;fontColor=default;fillColor=default;" vertex="1" parent="1">
                    <mxGeometry x="120" y="-400" width="332.5" height="120" as="geometry"/>
                </mxCell>
                <mxCell id="56" value="Use" style="endArrow=open;endSize=12;dashed=1;html=1;fontFamily=Helvetica;fontSize=12;fontColor=default;exitX=0;exitY=0.75;exitDx=0;exitDy=0;entryX=0.75;entryY=1;entryDx=0;entryDy=0;" edge="1" parent="1" source="27" target="55">
                    <mxGeometry width="160" relative="1" as="geometry">
                        <mxPoint x="300" y="-190" as="sourcePoint"/>
                        <mxPoint x="400" y="-120" as="targetPoint"/>
                        <Array as="points">
                            <mxPoint x="377" y="-130"/>
                        </Array>
                    </mxGeometry>
                </mxCell>
                <mxCell id="57" value="&lt;p style=&quot;margin:0px;margin-top:4px;text-align:center;&quot;&gt;&lt;b&gt;RoomConverter&lt;/b&gt;&lt;br&gt;&lt;/p&gt;&lt;hr size=&quot;1&quot;&gt;&lt;p style=&quot;margin:0px;margin-left:4px;&quot;&gt;&lt;br&gt;&lt;/p&gt;&lt;hr size=&quot;1&quot;&gt;&lt;p style=&quot;margin:0px;margin-left:4px;&quot;&gt;+convertirRoomADocument(room: Room): Document&lt;/p&gt;&lt;p style=&quot;margin:0px;margin-left:4px;&quot;&gt;+convertirDocumentARoom(document: Document): Room&lt;br&gt;&lt;/p&gt;" style="verticalAlign=top;align=left;overflow=fill;fontSize=12;fontFamily=Helvetica;html=1;rounded=0;strokeColor=default;fontColor=default;fillColor=default;" vertex="1" parent="1">
                    <mxGeometry x="1270" y="-560" width="332.5" height="120" as="geometry"/>
                </mxCell>
                <mxCell id="58" value="Use" style="endArrow=open;endSize=12;dashed=1;html=1;fontFamily=Helvetica;fontSize=12;fontColor=default;exitX=1;exitY=0;exitDx=0;exitDy=0;entryX=0.5;entryY=1;entryDx=0;entryDy=0;" edge="1" parent="1" source="35" target="57">
                    <mxGeometry width="160" relative="1" as="geometry">
                        <mxPoint x="1460" y="-390" as="sourcePoint"/>
                        <mxPoint x="1570" y="-340" as="targetPoint"/>
                        <Array as="points">
                            <mxPoint x="1440" y="-320"/>
                        </Array>
                    </mxGeometry>
                </mxCell>
                <mxCell id="59" value="&lt;p style=&quot;margin:0px;margin-top:4px;text-align:center;&quot;&gt;&lt;b&gt;UserConverter&lt;/b&gt;&lt;br&gt;&lt;/p&gt;&lt;hr size=&quot;1&quot;&gt;&lt;p style=&quot;margin:0px;margin-left:4px;&quot;&gt;&lt;br&gt;&lt;/p&gt;&lt;hr size=&quot;1&quot;&gt;&lt;p style=&quot;margin:0px;margin-left:4px;&quot;&gt;+convertToDocument(user: User): Document&lt;br&gt;&lt;/p&gt;&lt;p style=&quot;margin:0px;margin-left:4px;&quot;&gt;+convertToUser(document: Document): User&lt;br&gt;&lt;/p&gt;" style="verticalAlign=top;align=left;overflow=fill;fontSize=12;fontFamily=Helvetica;html=1;rounded=0;strokeColor=default;fontColor=default;fillColor=default;" vertex="1" parent="1">
                    <mxGeometry x="-240" y="-610" width="332.5" height="120" as="geometry"/>
                </mxCell>
                <mxCell id="60" value="Use" style="endArrow=open;endSize=12;dashed=1;html=1;fontFamily=Helvetica;fontSize=12;fontColor=default;exitX=0;exitY=0.75;exitDx=0;exitDy=0;entryX=0;entryY=0.5;entryDx=0;entryDy=0;" edge="1" parent="1" source="39" target="59">
                    <mxGeometry width="160" relative="1" as="geometry">
                        <mxPoint x="-290" y="10" as="sourcePoint"/>
                        <mxPoint x="-130" y="10" as="targetPoint"/>
                        <Array as="points">
                            <mxPoint x="-270" y="-102"/>
                            <mxPoint x="-270" y="-340"/>
                            <mxPoint x="-270" y="-550"/>
                        </Array>
                    </mxGeometry>
                </mxCell>
                <mxCell id="65" style="edgeStyle=none;html=1;exitX=0.5;exitY=0;exitDx=0;exitDy=0;entryX=0.5;entryY=1;entryDx=0;entryDy=0;fontFamily=Helvetica;fontSize=12;fontColor=default;" edge="1" parent="1" source="61" target="39">
                    <mxGeometry relative="1" as="geometry"/>
                </mxCell>
                <mxCell id="61" value="&lt;p style=&quot;margin:0px;margin-top:4px;text-align:center;&quot;&gt;&lt;b&gt;UserController&lt;/b&gt;&lt;/p&gt;&lt;hr size=&quot;1&quot;&gt;&lt;p style=&quot;margin:0px;margin-left:4px;&quot;&gt;&lt;br&gt;&lt;/p&gt;&lt;hr size=&quot;1&quot;&gt;&lt;p style=&quot;margin:0px;margin-left:4px;&quot;&gt;+ UserController()&lt;/p&gt;" style="verticalAlign=top;align=left;overflow=fill;fontSize=12;fontFamily=Helvetica;html=1;rounded=0;strokeColor=default;fontColor=default;fillColor=default;" vertex="1" parent="1">
                    <mxGeometry x="-136.25" y="100" width="160" height="90" as="geometry"/>
                </mxCell>
                <mxCell id="68" style="edgeStyle=none;html=1;exitX=0.5;exitY=0;exitDx=0;exitDy=0;entryX=0.5;entryY=1;entryDx=0;entryDy=0;fontFamily=Helvetica;fontSize=12;fontColor=default;" edge="1" parent="1" source="66" target="27">
                    <mxGeometry relative="1" as="geometry"/>
                </mxCell>
                <mxCell id="66" value="&lt;p style=&quot;margin:0px;margin-top:4px;text-align:center;&quot;&gt;&lt;b&gt;ReservationController&lt;/b&gt;&lt;/p&gt;&lt;hr size=&quot;1&quot;&gt;&lt;p style=&quot;margin:0px;margin-left:4px;&quot;&gt;&lt;br&gt;&lt;/p&gt;&lt;hr size=&quot;1&quot;&gt;&lt;p style=&quot;margin:0px;margin-left:4px;&quot;&gt;+&amp;nbsp;&lt;b style=&quot;text-align: center;&quot;&gt;ReservationController&lt;/b&gt;()&lt;/p&gt;" style="verticalAlign=top;align=left;overflow=fill;fontSize=12;fontFamily=Helvetica;html=1;rounded=0;strokeColor=default;fontColor=default;fillColor=default;" vertex="1" parent="1">
                    <mxGeometry x="580" y="90" width="160" height="90" as="geometry"/>
                </mxCell>
                <mxCell id="69" style="edgeStyle=none;html=1;exitX=0.5;exitY=0;exitDx=0;exitDy=0;entryX=0.5;entryY=1;entryDx=0;entryDy=0;fontFamily=Helvetica;fontSize=12;fontColor=default;" edge="1" parent="1" source="70" target="35">
                    <mxGeometry relative="1" as="geometry">
                        <mxPoint x="1315" y="80" as="sourcePoint"/>
                    </mxGeometry>
                </mxCell>
                <mxCell id="70" value="&lt;p style=&quot;margin:0px;margin-top:4px;text-align:center;&quot;&gt;&lt;b&gt;RoomController&lt;/b&gt;&lt;/p&gt;&lt;hr size=&quot;1&quot;&gt;&lt;p style=&quot;margin:0px;margin-left:4px;&quot;&gt;&lt;br&gt;&lt;/p&gt;&lt;hr size=&quot;1&quot;&gt;&lt;p style=&quot;margin:0px;margin-left:4px;&quot;&gt;+RoomController()&lt;/p&gt;" style="verticalAlign=top;align=left;overflow=fill;fontSize=12;fontFamily=Helvetica;html=1;rounded=0;strokeColor=default;fontColor=default;fillColor=default;" vertex="1" parent="1">
                    <mxGeometry x="1235" y="80" width="160" height="90" as="geometry"/>
                </mxCell>
                <mxCell id="71" value="&lt;p style=&quot;margin:0px;margin-top:4px;text-align:center;&quot;&gt;&lt;b&gt;LoginPanel&lt;/b&gt;&lt;/p&gt;&lt;hr size=&quot;1&quot;&gt;&lt;p style=&quot;margin:0px;margin-left:4px;&quot;&gt;+userController: UserController&lt;/p&gt;&lt;p style=&quot;margin:0px;margin-left:4px;&quot;&gt;-user: User&lt;br&gt;-parentFrame: JFrame&lt;br&gt;-LoginLabel: JLabel&lt;br&gt;-Email: JTextField&amp;nbsp;&lt;br&gt;-jSeparator5: JSeparator&lt;br&gt;-EmailLabel: JLabel&lt;br&gt;-PasswordLabel: JLabel&lt;br&gt;&lt;/p&gt;&lt;p style=&quot;margin:0px;margin-left:4px;&quot;&gt;-Password: JPasswordField&lt;br&gt;-jSeparator4: JSeparator&lt;br&gt;-LoginButton: JButton&lt;br&gt;&lt;/p&gt;&lt;hr size=&quot;1&quot;&gt;&lt;p style=&quot;margin:0px;margin-left:4px;&quot;&gt;+LoginPanel(parentFrame: JFrame)&lt;br&gt;-initComponents(): void&lt;br&gt;-EmailActionPerformed(evt: ActionEvent): void&lt;br&gt;-PasswordActionPerformed(evt: ActionEvent): void&lt;br&gt;-LoginButtonActionPerformed(evt: ActionEvent): void&lt;br&gt;-allFields(): boolean&lt;br&gt;-checkUserExist(): boolean&lt;br&gt;-login(): boolean&lt;br&gt;-disposeAndShowUserView(): void&lt;br&gt;&lt;/p&gt;" style="verticalAlign=top;align=left;overflow=fill;fontSize=12;fontFamily=Helvetica;html=1;rounded=0;strokeColor=default;fontColor=default;fillColor=default;" vertex="1" parent="1">
                    <mxGeometry x="-201.25" y="440" width="292.5" height="340" as="geometry"/>
                </mxCell>
                <mxCell id="76" value="&lt;p style=&quot;margin:0px;margin-top:4px;text-align:center;&quot;&gt;&lt;b&gt;RegisterPanel&lt;/b&gt;&lt;/p&gt;&lt;hr size=&quot;1&quot;&gt;&lt;p style=&quot;margin:0px;margin-left:4px;&quot;&gt;-userController: UserController&lt;br&gt;-user: User&lt;br&gt;-parentFrame: JFrame&lt;br&gt;&lt;/p&gt;&lt;p style=&quot;margin:0px;margin-left:4px;&quot;&gt;-RegisterLabel: JLabel&lt;br&gt;-Email: JTextField&lt;br&gt;-jSeparator5: JSeparator&lt;br&gt;&lt;/p&gt;&lt;p style=&quot;margin:0px;margin-left:4px;&quot;&gt;-EmailLabel: JLabel&lt;br&gt;&lt;/p&gt;&lt;p style=&quot;margin:0px;margin-left:4px;&quot;&gt;-PasswordLabel: JLabel&lt;br&gt;&lt;/p&gt;&lt;p style=&quot;margin:0px;margin-left:4px;&quot;&gt;-Password: JPasswordField&lt;br&gt;-jSeparator4: JSeparator&lt;br&gt;-RegisterButton: JButton&lt;br&gt;&lt;/p&gt;&lt;hr size=&quot;1&quot;&gt;&lt;p style=&quot;margin:0px;margin-left:4px;&quot;&gt;+RegisterPanel(parentFrame: JFrame)&lt;br&gt;-initComponents(): void&lt;br&gt;-EmailActionPerformed(evt: ActionEvent): void&lt;br&gt;-PasswordActionPerformed(evt: ActionEvent): void&lt;br&gt;-RegisterButtonActionPerformed(evt: ActionEvent): void&lt;br&gt;-allFields(): boolean&lt;br&gt;-checkUserExist(): boolean&lt;br&gt;-register(): boolean&lt;br&gt;-disposeAndShowUserView(): void&lt;br&gt;&lt;/p&gt;" style="verticalAlign=top;align=left;overflow=fill;fontSize=12;fontFamily=Helvetica;html=1;rounded=0;strokeColor=default;fontColor=default;fillColor=default;" vertex="1" parent="1">
                    <mxGeometry x="-600" y="430" width="310" height="340" as="geometry"/>
                </mxCell>
                <mxCell id="80" value="Use" style="endArrow=open;endSize=12;dashed=1;html=1;fontFamily=Helvetica;fontSize=12;fontColor=default;exitX=0;exitY=0;exitDx=0;exitDy=0;entryX=1;entryY=1;entryDx=0;entryDy=0;" edge="1" parent="1" source="71" target="42">
                    <mxGeometry width="160" relative="1" as="geometry">
                        <mxPoint x="-330" y="140" as="sourcePoint"/>
                        <mxPoint x="-170" y="140" as="targetPoint"/>
                        <Array as="points">
                            <mxPoint x="-200" y="40"/>
                            <mxPoint x="-340" y="40"/>
                        </Array>
                    </mxGeometry>
                </mxCell>
                <mxCell id="82" value="Use" style="endArrow=open;endSize=12;dashed=1;html=1;fontFamily=Helvetica;fontSize=12;fontColor=default;exitX=0.25;exitY=0;exitDx=0;exitDy=0;entryX=0.25;entryY=1;entryDx=0;entryDy=0;" edge="1" parent="1" source="76" target="42">
                    <mxGeometry width="160" relative="1" as="geometry">
                        <mxPoint x="-490" y="130" as="sourcePoint"/>
                        <mxPoint x="-330" y="130" as="targetPoint"/>
                        <Array as="points">
                            <mxPoint x="-522" y="140"/>
                            <mxPoint x="-660" y="140"/>
                        </Array>
                    </mxGeometry>
                </mxCell>
                <mxCell id="83" value="&lt;p style=&quot;margin:0px;margin-top:4px;text-align:center;&quot;&gt;&lt;b&gt;Autentication JFrame&lt;/b&gt;&lt;/p&gt;&lt;hr size=&quot;1&quot;&gt;&lt;p style=&quot;margin:0px;margin-left:4px;&quot;&gt;-Favicon: JLabel&lt;br&gt;-LoginButton: JButton&lt;br&gt;-Logo: JLabel&amp;nbsp;&lt;br&gt;&lt;/p&gt;&lt;p style=&quot;margin:0px;margin-left:4px;&quot;&gt;-Menu: JPanel&amp;nbsp;&amp;nbsp;&lt;br&gt;-Principal: JPanel&lt;br&gt;-RegisterButton: JButton&lt;br&gt;-jLabel1: JLabel&amp;nbsp;&lt;br&gt;-jPanel1: JPanel&lt;br&gt;-jPanel3: JPanel&lt;br&gt;&lt;/p&gt;&lt;p style=&quot;margin:0px;margin-left:4px;&quot;&gt;-jSeparator1: JSeparator&lt;br&gt;&lt;/p&gt;&lt;hr size=&quot;1&quot;&gt;&lt;p style=&quot;margin:0px;margin-left:4px;&quot;&gt;+Authentication()&lt;br&gt;-initComponents(): void&lt;br&gt;-RegisterButtonActionPerformed(evt: ActionEvent): void&lt;br&gt;-jLabel1MouseClicked(evt: MouseEvent): void&lt;br&gt;&lt;/p&gt;&lt;p style=&quot;margin:0px;margin-left:4px;&quot;&gt;-LoginButtonActionPerformed(evt: ActionEvent): void&lt;br&gt;+ShowJPanel(panel: JPanel): void&lt;br&gt;&lt;/p&gt;" style="verticalAlign=top;align=left;overflow=fill;fontSize=12;fontFamily=Helvetica;html=1;rounded=0;strokeColor=default;fontColor=default;fillColor=default;" vertex="1" parent="1">
                    <mxGeometry x="-400" y="1020" width="310" height="290" as="geometry"/>
                </mxCell>
                <mxCell id="86" value="1" style="endArrow=open;html=1;endSize=12;startArrow=diamondThin;startSize=14;startFill=1;edgeStyle=orthogonalEdgeStyle;align=left;verticalAlign=bottom;fontFamily=Helvetica;fontSize=12;fontColor=default;exitX=0.5;exitY=0;exitDx=0;exitDy=0;entryX=0.5;entryY=1;entryDx=0;entryDy=0;" edge="1" parent="1" source="83" target="76">
                    <mxGeometry x="-1" y="3" relative="1" as="geometry">
                        <mxPoint x="-580" y="670" as="sourcePoint"/>
                        <mxPoint x="-420" y="670" as="targetPoint"/>
                    </mxGeometry>
                </mxCell>
                <mxCell id="87" value="1" style="endArrow=open;html=1;endSize=12;startArrow=diamondThin;startSize=14;startFill=1;edgeStyle=orthogonalEdgeStyle;align=left;verticalAlign=bottom;fontFamily=Helvetica;fontSize=12;fontColor=default;exitX=0.5;exitY=0;exitDx=0;exitDy=0;entryX=0.5;entryY=1;entryDx=0;entryDy=0;" edge="1" parent="1" source="83" target="71">
                    <mxGeometry x="-1" y="3" relative="1" as="geometry">
                        <mxPoint x="-210" y="650" as="sourcePoint"/>
                        <mxPoint x="-50" y="650" as="targetPoint"/>
                    </mxGeometry>
                </mxCell>
                <mxCell id="89" value="&lt;p style=&quot;margin:0px;margin-top:4px;text-align:center;&quot;&gt;&lt;b&gt;Home JFrame&lt;/b&gt;&lt;/p&gt;&lt;hr size=&quot;1&quot;&gt;&lt;p style=&quot;margin:0px;margin-left:4px;&quot;&gt;-isAdmin: boolean&lt;/p&gt;&lt;hr size=&quot;1&quot;&gt;&lt;p style=&quot;margin:0px;margin-left:4px;&quot;&gt;+Home()&lt;br&gt;-initComponents(): void&lt;br&gt;-setAdmin(admin: boolean): void&lt;br&gt;&lt;/p&gt;&lt;p style=&quot;margin:0px;margin-left:4px;&quot;&gt;+isAdmin(): boolean&lt;br&gt;&lt;/p&gt;" style="verticalAlign=top;align=left;overflow=fill;fontSize=12;fontFamily=Helvetica;html=1;rounded=0;strokeColor=default;fontColor=default;fillColor=default;" vertex="1" parent="1">
                    <mxGeometry x="927.5" y="1090" width="220" height="130" as="geometry"/>
                </mxCell>
                <mxCell id="90" value="&lt;p style=&quot;margin:0px;margin-top:4px;text-align:center;&quot;&gt;&lt;b&gt;HomePanel&lt;/b&gt;&lt;br&gt;&lt;/p&gt;&lt;hr size=&quot;1&quot;&gt;&lt;p style=&quot;margin:0px;margin-left:4px;&quot;&gt;-HomePanel: JPanel&lt;/p&gt;&lt;hr size=&quot;1&quot;&gt;&lt;p style=&quot;margin:0px;margin-left:4px;&quot;&gt;+HomePanel()&lt;br&gt;-initComponents(): void&lt;br&gt;&lt;/p&gt;" style="verticalAlign=top;align=left;overflow=fill;fontSize=12;fontFamily=Helvetica;html=1;rounded=0;strokeColor=default;fontColor=default;fillColor=default;" vertex="1" parent="1">
                    <mxGeometry x="280" y="1130" width="212" height="100" as="geometry"/>
                </mxCell>
                <mxCell id="92" value="&lt;p style=&quot;margin:0px;margin-top:4px;text-align:center;&quot;&gt;&lt;b&gt;RoomsPanel&lt;/b&gt;&lt;/p&gt;&lt;hr size=&quot;1&quot;&gt;&lt;p style=&quot;margin:0px;margin-left:4px;&quot;&gt;-roomController: RoomController&lt;br&gt;-user: User&lt;br&gt;-isAdmin: boolean&lt;br&gt;&lt;/p&gt;&lt;hr size=&quot;1&quot;&gt;&lt;p style=&quot;margin:0px;margin-left:4px;&quot;&gt;+RoomsPanel(user: User)&lt;br&gt;-initComponents(): void&lt;br&gt;-CreateActionPerformed(evt: ActionEvent): void&lt;br&gt;-UpdateActionPerformed(evt: ActionEvent): void&lt;br&gt;-DeleteActionPerformed(evt: ActionEvent): void&lt;br&gt;-loadOptions(): void&lt;br&gt;-LoadRooms(): void&amp;nbsp;&lt;br&gt;&lt;/p&gt;" style="verticalAlign=top;align=left;overflow=fill;fontSize=12;fontFamily=Helvetica;html=1;rounded=0;strokeColor=default;fontColor=default;fillColor=default;" vertex="1" parent="1">
                    <mxGeometry x="1275" y="424" width="290" height="200" as="geometry"/>
                </mxCell>
                <mxCell id="96" value="Use" style="endArrow=open;endSize=12;dashed=1;html=1;fontFamily=Helvetica;fontSize=12;fontColor=default;exitX=0.75;exitY=0;exitDx=0;exitDy=0;entryX=0.75;entryY=1;entryDx=0;entryDy=0;" edge="1" parent="1" source="92" target="46">
                    <mxGeometry width="160" relative="1" as="geometry">
                        <mxPoint x="1580" y="350" as="sourcePoint"/>
                        <mxPoint x="1740" y="350" as="targetPoint"/>
                        <Array as="points">
                            <mxPoint x="1498" y="60"/>
                            <mxPoint x="2010" y="50"/>
                            <mxPoint x="2010" y="-140"/>
                        </Array>
                    </mxGeometry>
                </mxCell>
                <mxCell id="98" value="Use" style="endArrow=open;endSize=12;dashed=1;html=1;fontFamily=Helvetica;fontSize=12;fontColor=default;exitX=1;exitY=0.5;exitDx=0;exitDy=0;entryX=0;entryY=0.25;entryDx=0;entryDy=0;" edge="1" parent="1" source="71" target="89">
                    <mxGeometry width="160" relative="1" as="geometry">
                        <mxPoint x="430" y="700" as="sourcePoint"/>
                        <mxPoint x="590" y="700" as="targetPoint"/>
                        <Array as="points">
                            <mxPoint x="230" y="610"/>
                            <mxPoint x="230" y="990"/>
                            <mxPoint x="820" y="990"/>
                            <mxPoint x="820" y="1120"/>
                        </Array>
                    </mxGeometry>
                </mxCell>
                <mxCell id="99" value="&lt;p style=&quot;margin:0px;margin-top:4px;text-align:center;&quot;&gt;&lt;b&gt;UpRoom&lt;/b&gt;&lt;/p&gt;&lt;hr size=&quot;1&quot;&gt;&lt;p style=&quot;margin:0px;margin-left:4px;&quot;&gt;-roomController: RoomController&amp;nbsp;&lt;br&gt;-room: Room&lt;br&gt;-user: User&lt;br&gt;-isEdition: boolean&lt;/p&gt;&lt;hr size=&quot;1&quot;&gt;&lt;p style=&quot;margin:0px;margin-left:4px;&quot;&gt;+UpRoom(user: User)&lt;br&gt;+UpRoom(user: User, room: Room)&lt;br&gt;-initComponents(): void&lt;br&gt;-RoomNumberActionPerformed(evt:java.awt.event.ActionEvent): void&lt;br&gt;-RoomTypeActionPerformed(evt:java.awt.event.ActionEvent): void&lt;br&gt;-RoomCapacityActionPerformed(evt:java.awt.event.ActionEvent): void&lt;br&gt;-RoomPriceActionPerformed(evt:java.awt.event.ActionEvent): void&lt;br&gt;-CreateButtonActionPerformed(evt:java.awt.event.ActionEvent): void&lt;br&gt;-createRoom(): void&lt;br&gt;-updateRoom(): void&lt;br&gt;-edition(): void&lt;br&gt;-allFields(): boolean&lt;/p&gt;" style="verticalAlign=top;align=left;overflow=fill;fontSize=12;fontFamily=Helvetica;html=1;rounded=0;strokeColor=default;fontColor=default;fillColor=default;" vertex="1" parent="1">
                    <mxGeometry x="1810" y="380" width="400" height="290" as="geometry"/>
                </mxCell>
                <mxCell id="101" value="Use" style="endArrow=open;endSize=12;dashed=1;html=1;fontFamily=Helvetica;fontSize=12;fontColor=default;exitX=0.75;exitY=0;exitDx=0;exitDy=0;entryX=1;entryY=1;entryDx=0;entryDy=0;" edge="1" parent="1" source="99" target="46">
                    <mxGeometry width="160" relative="1" as="geometry">
                        <mxPoint x="2070" y="270" as="sourcePoint"/>
                        <mxPoint x="2230" y="270" as="targetPoint"/>
                    </mxGeometry>
                </mxCell>
                <mxCell id="102" value="Use" style="endArrow=open;endSize=12;dashed=1;html=1;fontFamily=Helvetica;fontSize=12;fontColor=default;exitX=1;exitY=0.5;exitDx=0;exitDy=0;entryX=0;entryY=0.5;entryDx=0;entryDy=0;" edge="1" parent="1" source="92" target="99">
                    <mxGeometry width="160" relative="1" as="geometry">
                        <mxPoint x="1720" y="670" as="sourcePoint"/>
                        <mxPoint x="1880" y="670" as="targetPoint"/>
                    </mxGeometry>
                </mxCell>
                <mxCell id="103" value="&lt;p style=&quot;margin:0px;margin-top:4px;text-align:center;&quot;&gt;&lt;b&gt;ReservationsPanel&lt;/b&gt;&lt;br&gt;&lt;/p&gt;&lt;hr size=&quot;1&quot;&gt;&lt;p style=&quot;margin:0px;margin-left:4px;&quot;&gt;-reservationController: ReservationController&lt;br&gt;-user: User&lt;br&gt;&lt;/p&gt;&lt;hr size=&quot;1&quot;&gt;&lt;p style=&quot;margin:0px;margin-left:4px;&quot;&gt;+ReservationsPanel(user: User)&lt;br&gt;-initComponents(): void&lt;br&gt;-UpdateActionPerformed(evt:java.awt.event.ActionEvent): void&lt;br&gt;-DeleteActionPerformed(evt:java.awt.event.ActionEvent): void&lt;br&gt;-admin(): void&lt;br&gt;-LoadBookingsUser(): void&lt;br&gt;-LoadBookingsAdmin(): void&lt;br&gt;-optionButton(deleteUpdate: String): boolean&lt;br&gt;&lt;/p&gt;" style="verticalAlign=top;align=left;overflow=fill;fontSize=12;fontFamily=Helvetica;html=1;rounded=0;strokeColor=default;fontColor=default;fillColor=default;" vertex="1" parent="1">
                    <mxGeometry x="310" y="410" width="348" height="202" as="geometry"/>
                </mxCell>
                <mxCell id="104" value="&lt;p style=&quot;margin:0px;margin-top:4px;text-align:center;&quot;&gt;&lt;b&gt;Bookign&lt;/b&gt;&lt;/p&gt;&lt;hr size=&quot;1&quot;&gt;&lt;p style=&quot;margin:0px;margin-left:4px;&quot;&gt;- room: Room&lt;br&gt;- reservation: Reservation&lt;br&gt;&lt;/p&gt;&lt;p style=&quot;margin:0px;margin-left:4px;&quot;&gt;- reservationController: ReservationController&lt;br&gt;- user: User&lt;br&gt;- isEdition: boolean&lt;br&gt;&lt;/p&gt;&lt;hr size=&quot;1&quot;&gt;&lt;p style=&quot;margin:0px;margin-left:4px;&quot;&gt;+ method(): Type&lt;br&gt;+ Booking(room: Room, user: User)&lt;br&gt;+ Booking(reservation: Reservation, user: User)&lt;br&gt;+ initComponents()&lt;br&gt;+ DateEnterActionPerformed(evt: java.awt.event.ActionEvent)&lt;br&gt;+ DateExitActionPerformed(evt: java.awt.event.ActionEvent)&lt;/p&gt;&lt;p style=&quot;margin:0px;margin-left:4px;&quot;&gt;+ CreateButtonActionPerformed(evt: java.awt.event.ActionEvent)&lt;br&gt;+ NumberPersonsActionPerformed(evt: java.awt.event.ActionEvent)&lt;br&gt;+ createBooking()&lt;br&gt;+ updateRoom()&lt;br&gt;&lt;/p&gt;&lt;p style=&quot;margin:0px;margin-left:4px;&quot;&gt;+ calculateReservationPrice(DateEntry: String, DateExit: String,&lt;/p&gt;&lt;p style=&quot;margin:0px;margin-left:4px;&quot;&gt;&amp;nbsp; PriceNight: String): String&lt;br&gt;+ edition()&lt;br&gt;+ allFields(): boolean&lt;br&gt;&lt;/p&gt;&lt;p style=&quot;margin:0px;margin-left:4px;&quot;&gt;+ comprobateDates(): boolean&lt;br&gt;+ checkDate(DateEntry: String, DateExit: String): boolean&lt;br&gt;+ capacity(capacityRoom: String): boolean&lt;br&gt;&lt;/p&gt;" style="verticalAlign=top;align=left;overflow=fill;fontSize=12;fontFamily=Helvetica;html=1;rounded=0;strokeColor=default;fontColor=default;fillColor=default;" vertex="1" parent="1">
                    <mxGeometry x="790" y="339" width="400" height="370" as="geometry"/>
                </mxCell>
                <mxCell id="108" value="Use" style="endArrow=open;endSize=12;dashed=1;html=1;fontFamily=Helvetica;fontSize=12;fontColor=default;exitX=0.25;exitY=0;exitDx=0;exitDy=0;entryX=1;entryY=0.5;entryDx=0;entryDy=0;" edge="1" parent="1" source="104" target="66">
                    <mxGeometry width="160" relative="1" as="geometry">
                        <mxPoint x="890" y="290" as="sourcePoint"/>
                        <mxPoint x="1050" y="290" as="targetPoint"/>
                        <Array as="points">
                            <mxPoint x="890" y="135"/>
                        </Array>
                    </mxGeometry>
                </mxCell>
                <mxCell id="109" value="Use" style="endArrow=open;endSize=12;dashed=1;html=1;fontFamily=Helvetica;fontSize=12;fontColor=default;exitX=0.5;exitY=0;exitDx=0;exitDy=0;entryX=0.75;entryY=1;entryDx=0;entryDy=0;" edge="1" parent="1" source="104" target="50">
                    <mxGeometry width="160" relative="1" as="geometry">
                        <mxPoint x="900" y="280" as="sourcePoint"/>
                        <mxPoint x="1060" y="280" as="targetPoint"/>
                        <Array as="points">
                            <mxPoint x="990" y="220"/>
                            <mxPoint x="1100" y="220"/>
                        </Array>
                    </mxGeometry>
                </mxCell>
                <mxCell id="110" value="Use" style="endArrow=open;endSize=12;dashed=1;html=1;fontFamily=Helvetica;fontSize=12;fontColor=default;exitX=1;exitY=0;exitDx=0;exitDy=0;entryX=0.25;entryY=1;entryDx=0;entryDy=0;" edge="1" parent="1" source="103" target="50">
                    <mxGeometry width="160" relative="1" as="geometry">
                        <mxPoint x="620" y="310" as="sourcePoint"/>
                        <mxPoint x="780" y="310" as="targetPoint"/>
                        <Array as="points">
                            <mxPoint x="658" y="290"/>
                            <mxPoint x="800" y="290"/>
                            <mxPoint x="800" y="80"/>
                            <mxPoint x="880" y="80"/>
                        </Array>
                    </mxGeometry>
                </mxCell>
                <mxCell id="111" value="Use" style="endArrow=open;endSize=12;dashed=1;html=1;fontFamily=Helvetica;fontSize=12;fontColor=default;exitX=0.75;exitY=0;exitDx=0;exitDy=0;entryX=0.25;entryY=1;entryDx=0;entryDy=0;" edge="1" parent="1" source="104" target="46">
                    <mxGeometry width="160" relative="1" as="geometry">
                        <mxPoint x="1210" y="280" as="sourcePoint"/>
                        <mxPoint x="1370" y="280" as="targetPoint"/>
                        <Array as="points">
                            <mxPoint x="1090" y="250"/>
                            <mxPoint x="1820" y="250"/>
                        </Array>
                    </mxGeometry>
                </mxCell>
                <mxCell id="113" value="Use" style="endArrow=open;endSize=12;dashed=1;html=1;fontFamily=Helvetica;fontSize=12;fontColor=default;exitX=0;exitY=0;exitDx=0;exitDy=0;entryX=0.75;entryY=1;entryDx=0;entryDy=0;" edge="1" parent="1" source="104" target="42">
                    <mxGeometry width="160" relative="1" as="geometry">
                        <mxPoint x="930" y="160" as="sourcePoint"/>
                        <mxPoint x="1090" y="160" as="targetPoint"/>
                        <Array as="points">
                            <mxPoint x="820" y="270"/>
                            <mxPoint x="330" y="260"/>
                            <mxPoint x="330"/>
                            <mxPoint x="-450"/>
                        </Array>
                    </mxGeometry>
                </mxCell>
                <mxCell id="116" value="Use" style="endArrow=open;endSize=12;dashed=1;html=1;fontFamily=Helvetica;fontSize=12;fontColor=default;exitX=1;exitY=0;exitDx=0;exitDy=0;entryX=0.5;entryY=1;entryDx=0;entryDy=0;" edge="1" parent="1" source="104" target="50">
                    <mxGeometry width="160" relative="1" as="geometry">
                        <mxPoint x="990" y="180" as="sourcePoint"/>
                        <mxPoint x="1150" y="180" as="targetPoint"/>
                        <Array as="points">
                            <mxPoint x="1190" y="290"/>
                            <mxPoint x="960" y="290"/>
                            <mxPoint x="960" y="-30"/>
                            <mxPoint x="1000" y="-30"/>
                        </Array>
                    </mxGeometry>
                </mxCell>
                <mxCell id="117" value="1" style="endArrow=open;html=1;endSize=12;startArrow=diamondThin;startSize=14;startFill=1;edgeStyle=orthogonalEdgeStyle;align=left;verticalAlign=bottom;fontFamily=Helvetica;fontSize=12;fontColor=default;exitX=0.75;exitY=0;exitDx=0;exitDy=0;entryX=0;entryY=1;entryDx=0;entryDy=0;" edge="1" parent="1" source="103" target="66">
                    <mxGeometry x="-1" y="3" relative="1" as="geometry">
                        <mxPoint x="425" y="230" as="sourcePoint"/>
                        <mxPoint x="585" y="230" as="targetPoint"/>
                    </mxGeometry>
                </mxCell>
                <mxCell id="118" value="1" style="endArrow=open;html=1;endSize=12;startArrow=diamondThin;startSize=14;startFill=1;edgeStyle=orthogonalEdgeStyle;align=left;verticalAlign=bottom;fontFamily=Helvetica;fontSize=12;fontColor=default;exitX=0.5;exitY=0;exitDx=0;exitDy=0;entryX=0.5;entryY=1;entryDx=0;entryDy=0;" edge="1" parent="1" source="71" target="61">
                    <mxGeometry x="-1" y="3" relative="1" as="geometry">
                        <mxPoint x="-200" y="320" as="sourcePoint"/>
                        <mxPoint x="-40" y="320" as="targetPoint"/>
                    </mxGeometry>
                </mxCell>
                <mxCell id="119" value="1" style="endArrow=open;html=1;endSize=12;startArrow=diamondThin;startSize=14;startFill=1;edgeStyle=orthogonalEdgeStyle;align=left;verticalAlign=bottom;fontFamily=Helvetica;fontSize=12;fontColor=default;exitX=0.75;exitY=0;exitDx=0;exitDy=0;entryX=0;entryY=0.5;entryDx=0;entryDy=0;" edge="1" parent="1" source="76" target="61">
                    <mxGeometry x="-1" y="3" relative="1" as="geometry">
                        <mxPoint x="-260" y="290" as="sourcePoint"/>
                        <mxPoint x="-100" y="290" as="targetPoint"/>
                    </mxGeometry>
                </mxCell>
                <mxCell id="120" value="1" style="endArrow=open;html=1;endSize=12;startArrow=diamondThin;startSize=14;startFill=1;edgeStyle=orthogonalEdgeStyle;align=left;verticalAlign=bottom;fontFamily=Helvetica;fontSize=12;fontColor=default;exitX=0.25;exitY=0;exitDx=0;exitDy=0;entryX=0.5;entryY=1;entryDx=0;entryDy=0;" edge="1" parent="1" source="92" target="70">
                    <mxGeometry x="-1" y="3" relative="1" as="geometry">
                        <mxPoint x="1370" y="290" as="sourcePoint"/>
                        <mxPoint x="1530" y="290" as="targetPoint"/>
                    </mxGeometry>
                </mxCell>
                <mxCell id="121" value="1" style="endArrow=open;html=1;endSize=12;startArrow=diamondThin;startSize=14;startFill=1;edgeStyle=orthogonalEdgeStyle;align=left;verticalAlign=bottom;fontFamily=Helvetica;fontSize=12;fontColor=default;exitX=0.25;exitY=0;exitDx=0;exitDy=0;entryX=1;entryY=0.5;entryDx=0;entryDy=0;" edge="1" parent="1" source="99" target="70">
                    <mxGeometry x="-1" y="3" relative="1" as="geometry">
                        <mxPoint x="1970" y="290" as="sourcePoint"/>
                        <mxPoint x="2130" y="290" as="targetPoint"/>
                    </mxGeometry>
                </mxCell>
                <mxCell id="122" value="1" style="endArrow=open;html=1;endSize=12;startArrow=diamondThin;startSize=14;startFill=1;edgeStyle=orthogonalEdgeStyle;align=left;verticalAlign=bottom;fontFamily=Helvetica;fontSize=12;fontColor=default;exitX=0;exitY=0.5;exitDx=0;exitDy=0;entryX=1;entryY=0.5;entryDx=0;entryDy=0;" edge="1" parent="1" source="89" target="90">
                    <mxGeometry x="-1" y="3" relative="1" as="geometry">
                        <mxPoint x="480" y="920" as="sourcePoint"/>
                        <mxPoint x="640" y="920" as="targetPoint"/>
                    </mxGeometry>
                </mxCell>
                <mxCell id="123" value="1" style="endArrow=open;html=1;endSize=12;startArrow=diamondThin;startSize=14;startFill=1;edgeStyle=orthogonalEdgeStyle;align=left;verticalAlign=bottom;fontFamily=Helvetica;fontSize=12;fontColor=default;exitX=0.5;exitY=0;exitDx=0;exitDy=0;entryX=0.5;entryY=1;entryDx=0;entryDy=0;" edge="1" parent="1" source="89" target="103">
                    <mxGeometry x="-1" y="3" relative="1" as="geometry">
                        <mxPoint x="970" y="940" as="sourcePoint"/>
                        <mxPoint x="1130" y="940" as="targetPoint"/>
                    </mxGeometry>
                </mxCell>
                <mxCell id="124" value="1" style="endArrow=open;html=1;endSize=12;startArrow=diamondThin;startSize=14;startFill=1;edgeStyle=orthogonalEdgeStyle;align=left;verticalAlign=bottom;fontFamily=Helvetica;fontSize=12;fontColor=default;exitX=0.5;exitY=0;exitDx=0;exitDy=0;entryX=0.5;entryY=1;entryDx=0;entryDy=0;" edge="1" parent="1" source="89" target="92">
                    <mxGeometry x="-1" y="3" relative="1" as="geometry">
                        <mxPoint x="1220" y="1010" as="sourcePoint"/>
                        <mxPoint x="1380" y="1010" as="targetPoint"/>
                    </mxGeometry>
                </mxCell>
                <mxCell id="125" value="&lt;p style=&quot;margin:0px;margin-top:4px;text-align:center;&quot;&gt;&lt;b&gt;ProyectoFinal&lt;/b&gt;&lt;br&gt;&lt;/p&gt;&lt;hr size=&quot;1&quot;&gt;&lt;p style=&quot;margin:0px;margin-left:4px;&quot;&gt;&lt;br&gt;&lt;/p&gt;&lt;hr size=&quot;1&quot;&gt;&lt;p style=&quot;margin:0px;margin-left:4px;&quot;&gt;+main(args: String[]): void&lt;/p&gt;" style="verticalAlign=top;align=left;overflow=fill;fontSize=12;fontFamily=Helvetica;html=1;rounded=0;strokeColor=default;fontColor=default;fillColor=default;" vertex="1" parent="1">
                    <mxGeometry x="-325" y="1590" width="160" height="90" as="geometry"/>
                </mxCell>
                <mxCell id="126" value="Use" style="endArrow=open;endSize=12;dashed=1;html=1;fontFamily=Helvetica;fontSize=12;fontColor=default;exitX=0.5;exitY=0;exitDx=0;exitDy=0;entryX=0.5;entryY=1;entryDx=0;entryDy=0;" edge="1" parent="1" source="125" target="83">
                    <mxGeometry width="160" relative="1" as="geometry">
                        <mxPoint x="-290" y="1460" as="sourcePoint"/>
                        <mxPoint x="-130" y="1460" as="targetPoint"/>
                    </mxGeometry>
                </mxCell>
                <mxCell id="127" value="Actor" style="shape=umlActor;verticalLabelPosition=bottom;verticalAlign=top;html=1;rounded=0;strokeColor=default;fontFamily=Helvetica;fontSize=12;fontColor=default;fillColor=default;" vertex="1" parent="1">
                    <mxGeometry x="-50" y="1575" width="30" height="60" as="geometry"/>
                </mxCell>
            </root>
        </mxGraphModel>
    </diagram>
</mxfile>